<?xml version="1.0" standalone="no"?>
<!DOCTYPE svg PUBLIC "-//W3C//DTD SVG 20010904//EN"
 "http://www.w3.org/TR/2001/REC-SVG-20010904/DTD/svg10.dtd">
<svg version="1.0" xmlns="http://www.w3.org/2000/svg"
 width="300.000000pt" height="300.000000pt" viewBox="0 0 300.000000 300.000000"
 preserveAspectRatio="xMidYMid meet">
<metadata>
Created by potrace 1.11, written by Peter Selinger 2001-2013
</metadata>
<g transform="translate(0.000000,300.000000) scale(0.100000,-0.100000)"
fill="#000000" stroke="none">
<path d="M0 1500 l0 -1500 1500 0 1500 0 0 1500 0 1500 -1500 0 -1500 0 0
-1500z m1716 1275 c236 -41 456 -146 634 -302 285 -251 440 -592 440 -973 0
-357 -125 -657 -379 -911 -254 -254 -554 -379 -911 -379 -321 0 -612 109 -850
317 -285 251 -440 592 -440 973 0 321 109 612 317 850 195 222 460 372 748
424 109 19 331 20 441 1z"/>
<path d="M1384 2700 c-232 -24 -437 -106 -622 -250 -301 -235 -464 -568 -464
-950 0 -281 81 -518 252 -738 235 -301 568 -464 950 -464 382 0 715 163 950
464 171 220 252 457 252 738 0 319 -114 605 -336 839 -57 60 -202 171 -280
215 -200 112 -473 169 -702 146z m141 -105 c0 -18 -9 -21 -96 -27 -536 -42
-955 -461 -997 -997 -6 -87 -9 -96 -27 -96 -27 0 -31 43 -15 160 34 254 143
475 322 653 83 84 197 167 296 216 129 65 341 117 462 113 48 -2 55 -5 55 -22z
m1 -176 c12 -20 -12 -29 -110 -39 -215 -22 -377 -101 -536 -260 -159 -159
-237 -320 -259 -534 -10 -100 -19 -124 -42 -111 -16 10 -6 168 16 249 47 176
118 299 250 431 140 140 281 218 470 260 75 16 201 19 211 4z m-11 -214 c0
-16 -8 -21 -35 -23 -360 -27 -623 -274 -657 -618 -7 -70 -10 -79 -28 -79 -18
0 -20 6 -19 66 4 181 109 390 258 510 128 104 303 170 436 166 38 -2 45 -5 45
-22z m90 -300 c312 -81 418 -473 191 -701 -241 -240 -651 -107 -709 230 -50
295 226 546 518 471z m1013 -415 c6 -53 -17 -204 -45 -299 -105 -367 -398
-659 -767 -765 -94 -28 -291 -54 -320 -43 -10 4 -16 15 -14 24 3 15 19 19 99
25 212 17 434 103 595 232 231 185 381 468 400 755 7 105 9 113 31 109 12 -2
19 -14 21 -38z m-405 -44 c-7 -193 -118 -403 -277 -522 -120 -90 -259 -143
-386 -147 -69 -2 -75 0 -75 18 0 16 8 21 35 23 236 17 424 121 542 300 72 107
118 246 118 352 0 41 7 52 30 48 12 -3 15 -17 13 -72z m215 18 c8 -119 -45
-309 -127 -449 -60 -105 -217 -263 -319 -323 -143 -83 -303 -132 -436 -132
-62 0 -89 12 -70 30 5 5 53 13 108 19 424 47 752 375 795 793 5 54 13 103 16
108 14 23 30 1 33 -46z"/>
<path d="M1391 1834 c-94 -34 -161 -94 -208 -184 -25 -49 -28 -65 -28 -150 0
-84 3 -101 28 -150 37 -72 96 -131 165 -166 51 -26 67 -29 152 -29 85 0 101 3
152 29 69 35 128 94 165 166 25 49 28 66 28 150 0 84 -3 101 -28 150 -63 123
-167 191 -302 197 -56 2 -93 -2 -124 -13z m156 -286 c29 -27 29 -65 1 -95 -27
-29 -65 -29 -95 -1 -29 27 -29 65 -1 95 27 29 65 29 95 1z"/>
<path d="M1480 1500 c0 -13 7 -20 20 -20 13 0 20 7 20 20 0 13 -7 20 -20 20
-13 0 -20 -7 -20 -20z"/>
</g>
</svg>
